<?xml version="1.0" encoding="utf-8"?>
<!-- Generator: Adobe Illustrator 27.2.0, SVG Export Plug-In . SVG Version: 6.00 Build 0)  -->
<svg version="1.1" id="Layer_1" xmlns="http://www.w3.org/2000/svg" xmlns:xlink="http://www.w3.org/1999/xlink" x="0px" y="0px"
	 viewBox="0 0 1366 261" style="enable-background:new 0 0 1366 261;" xml:space="preserve">
<style type="text/css">
	.st0{opacity:0.7;}
	.st1{clip-path:url(#SVGID_00000018939769651525567860000011301057222747538864_);}
	.st2{fill:#D0D2D3;}
</style>
<g class="st0">
	<g>
		<defs>
			<rect id="SVGID_1_" x="-42.6" y="-213.1" width="1565.1" height="690.9"/>
		</defs>
		<clipPath id="SVGID_00000091707779540973131740000015534162512075560103_">
			<use xlink:href="#SVGID_1_"  style="overflow:visible;"/>
		</clipPath>
		<g style="clip-path:url(#SVGID_00000091707779540973131740000015534162512075560103_);">
			<path class="st2" d="M348,132.3c-178.5,0-356.5-39.2-528.5-77.2c-147.1-32.4-286-63.1-426-71.5l0.2-2
				c140.2,8.5,279.2,39.2,426.4,71.6C-8,91,169.8,130.2,348,130.2S704,91,875.9,53.1C1023,20.7,1162.1-10,1302.3-18.5l0.2,2
				c-140,8.5-278.9,39.1-426,71.5C704.4,93.1,526.5,132.3,348,132.3z"/>
			<path class="st2" d="M348,133.3C169.3,133.3-8.7,94-180.8,56.1c-147-32.4-285.9-63-425.8-71.5l-1.2-0.1l0.4-4.1l1.2,0.1
				c140.4,8.5,279.4,39.2,426.7,71.6C-7.8,90,169.9,129.2,348,129.2s355.7-39.2,527.5-77c147.3-32.5,286.3-63.1,426.7-71.6l1.2-0.1
				l0.4,4.1l-1.2,0.1c-139.9,8.5-278.7,39.1-425.7,71.5C704.7,94.1,526.6,133.3,348,133.3z M355,131.2c-1.7,0-3.5,0-5.2,0
				C351.5,131.3,353.3,131.3,355,131.2z M342.7,131.3c1.2,0,2.3,0,3.4,0C345,131.3,343.8,131.3,342.7,131.3z"/>
			<path class="st2" d="M348,150c-178.5,0-356.4-48.6-528.5-95.6c-147.1-40.2-286-78.2-426.1-88.6l0.2-2.1
				C-466-25.7-327,12.3-179.7,52.5C-7.8,99.5,169.8,148,348,148c178.1,0,355.8-48.6,527.7-95.5c147.2-40.2,286.3-78.2,426.6-88.7
				l0.2,2.1c-140,10.5-279,48.4-426.1,88.6C704.4,101.4,526.5,150,348,150z"/>
			<path class="st2" d="M348,167.8c-178.5,0-356.4-58-528.4-114C-327.6,5.8-466.5-39.5-606.6-52l0.3-2
				C-465.9-41.5-326.8,3.9-179.5,51.9C-7.7,107.9,170,165.8,348,165.8s355.7-57.9,527.5-113.9c147.3-48,286.4-93.4,426.8-105.9
				l0.3,2c-140,12.5-279,57.8-426.1,105.7C704.3,109.8,526.5,167.8,348,167.8z"/>
			<path class="st2" d="M348,185.6C169.2,185.6-8.9,118.2-181.1,53C-328-2.6-466.8-55.1-606.6-69.7l0.3-2
				C-466.1-57-327.2-4.5-180.1,51.2c172,65.1,349.8,132.4,528.1,132.4c178.2,0,356-67.3,528-132.4C1023.1-4.5,1162-57,1302.2-71.7
				l0.3,2C1162.7-55.1,1023.9-2.6,877,53C704.8,118.2,526.7,185.6,348,185.6z"/>
			<path class="st2" d="M348,203.3c-179.4,0-358.1-76.9-530.9-151.2C-329.2-10.8-467.4-70.3-606.6-87.5l0.4-2
				c139.6,17.3,278,76.8,424.5,139.8c172.5,74.2,351,151,529.8,151s357.2-76.8,529.7-151c146.5-63,284.8-122.5,424.5-139.8l0.4,2
				C1163.5-70.3,1025.3-10.8,879,52.1C706.1,126.5,527.4,203.3,348,203.3z"/>
			<path class="st2" d="M348,221.1c-179.8,0-359-86.4-532.2-169.9C-330.1-19.1-467.9-85.5-606.7-105.2l0.4-2
				C-467-87.5-329-20.9-183,49.5C-10.1,132.8,168.8,219,348,219s358-86.2,530.9-169.6c146.1-70.4,284-136.9,423.3-156.7l0.4,2
				C1163.8-85.5,1026-19.1,880.1,51.2C706.9,134.7,527.8,221.1,348,221.1z"/>
		</g>
	</g>
</g>
</svg>
